<?xml version="1.0" encoding="UTF-8"?>
<svg id="_レイヤー_2" data-name="レイヤー 2" xmlns="http://www.w3.org/2000/svg" viewBox="0 0 761.35 85">
  <defs>
    <style>
      .cls-1 {
        fill: #dfe2d5;
      }
    </style>
  </defs>
  <g id="_レイヤー_1-2" data-name="レイヤー 1">
    <g>
      <path class="cls-1" d="M79.61,37.91c.25,0,.49-.04,.74-.07-.24,.03-.49,.06-.74,.07-2.02,.04-3.6-.84-4.98-2.12,1.38,1.28,2.96,2.16,4.98,2.12Zm2.05-.33s-.1,.02-.14,.03c.05-.01,.1-.02,.14-.03ZM12.82,52.32c-1.01-1.55-2.05-3.08-3.42-4.35-1.37-1.27-2.92-2.15-4.85-2.2-1.03-.03-2.02,.21-2.98,.57q-1.93,.72-.8,2.34c.07,.1,.13,.21,.21,.31,1.9,2.65,3.56,5.49,5.73,7.94,2.85,3.22,5.93,3.9,9.59,2.15,.53-.26,.57-.43,.25-.92-1.27-1.93-2.48-3.9-3.74-5.84ZM219.58,28.34c-2.85-3.26-5.85-3.95-9.57-2.24-.57,.26-.67,.45-.31,.99,1.41,2.14,2.76,4.31,4.15,6.45,.86,1.32,1.8,2.58,2.95,3.67,1.41,1.33,3.04,2.2,5.01,2.26,1.19-.07,2.32-.33,3.4-.81,1.33-.59,1.35-.6,.51-1.75-2.05-2.85-3.82-5.9-6.14-8.56ZM54.14,68.43c-.12-1.72-.21-3.45-.99-5.04-.66-1.36-1.64-2.28-3.29-2.2-.31,.01-.5,.05-.63,.37-1.22,3.04-2.29,6.11-2.31,9.44,0,.43-.02,.86,0,1.29,.29,4.41,3.35,7.72,7.53,8.17,1.59,.17,1.6,.17,1.16-1.35-1.01-3.49-1.22-7.09-1.48-10.68ZM90.84,22.21c-1.79,0-3.19,.63-4.54,1.39-.47,.27-.49,.49-.16,.91,.99,1.26,1.94,2.55,2.92,3.82,1.47,1.91,2.92,3.83,4.87,5.29,1.27,.95,2.66,1.56,4.28,1.46,2.53-.15,4.47-1.42,6.13-3.23,.43-.47-.07-.48-.3-.59-3.82-1.78-7.24-4.11-9.85-7.46-.95-1.21-2.16-1.53-3.35-1.6Zm44.67,40.54c1.73-.01,3.15-.66,4.52-1.46,.34-.2,.4-.39,.13-.72-2.22-2.81-4.17-5.83-6.78-8.31-1.02-.97-2.15-1.76-3.51-2.17-2.86-.84-6,.75-7.98,2.99-.37,.42,.01,.49,.29,.62,3.8,1.76,7.2,4.08,9.81,7.4,.97,1.23,2.18,1.62,3.52,1.66Zm-12.09-44.24c-1.56-1.69-3.56-2.33-5.81-2.39-.63-.02-.79,.16-.66,.78,.35,1.69,.63,3.39,.96,5.08,.53,2.78,1.02,5.55,2.15,8.19,1.5,3.49,5.88,5.14,8.6,4.5,.02-.38-.29-.6-.47-.87-.97-1.47-1.78-3-2.09-4.78-.47-2.73-1.06-5.44-1.51-8.17-.15-.94-.56-1.68-1.18-2.34ZM57.85,59.84c2.17,1.01,4.27,.55,6.34-.32,.49-.2,.23-.46,.08-.72-1.4-2.43-2.78-4.87-4.22-7.28-.85-1.43-1.8-2.8-3.02-3.96-2.42-2.32-6.05-2.72-8.8-.93,1.93,1.91,3.27,4.23,4.63,6.54,.9,1.54,1.86,3.05,2.7,4.63,.53,.99,1.32,1.6,2.29,2.05Zm25.94-36.01c-2.53-1.23-4.86-.52-7.13,.72-.42,.23-.13,.45,.02,.66,.82,1.16,1.65,2.31,2.46,3.47,1.47,2.09,2.89,4.23,4.76,6,1.42,1.35,3.03,2.32,4.89,2.31,1.88,.01,3.37-.6,4.81-1.41,.45-.26,.4-.43,0-.68-.81-.52-1.51-1.17-2.17-1.86-2.44-2.54-4.42-5.46-6.55-8.25-.31-.4-.64-.72-1.1-.95Zm60.9,37.91c1.35,.03,2.24-.18,3.11-.51q2.22-.84,.87-2.7c-.07-.1-.14-.2-.22-.3-1.82-2.53-3.48-5.18-5.63-7.46-2.97-3.15-6.35-3.65-10.01-1.51-.51,.3-.75,.49-.08,.9,.74,.45,1.36,1.06,1.97,1.68,2.36,2.42,4.31,5.17,6.27,7.89,1.07,1.49,2.47,1.91,3.71,2.01ZM55.51,25.59c-2.49-1.44-4.91-.93-7.32,.24-.55,.27-.17,.53,0,.78,1.34,2.07,2.69,4.13,4.05,6.19,.99,1.49,2.04,2.94,3.35,4.17,2.59,2.44,6.04,2.75,9.11,.79-.61-.66-1.2-1.25-1.73-1.89-2.43-2.93-4.29-6.24-6.46-9.35-.27-.39-.58-.7-.99-.93Zm166.5,26.76c-.82-1.45-1.7-2.86-2.78-4.13-2.53-2.96-5.89-3.62-9.52-1.75,1.15,1.14,2.08,2.36,2.91,3.66,1.7,2.64,3.26,5.37,4.79,8.11,.3,.54,.69,.93,1.2,1.23,2.19,1.27,4.42,1.01,6.69,.22,.65-.23,.59-.48,.3-.98-1.22-2.11-2.39-4.24-3.59-6.35ZM4.56,33.32c.71,1.23,1.49,2.41,2.4,3.51,2.12,2.53,4.76,3.38,7.95,2.45,1.67-.49,1.66-.47,.56-1.8-2.53-3.06-4.39-6.57-6.27-10.02-1.12-2.05-2.84-2.55-4.65-2.78-1.39,.05-2.52,.32-3.63,.72-.55,.2-.62,.41-.32,.92,1.34,2.32,2.63,4.67,3.97,7ZM91.66,11.25c.69,2.43,1.28,4.89,2.5,7.13,1.4,2.58,4.15,4.02,7.02,3.66-.3-.97-.63-1.92-.9-2.89-.97-3.48-1.32-7.08-2.16-10.58-.31-1.29-.95-2.23-1.95-3.01-1.76-1.36-3.76-1.73-5.93-1.53-.64,.06-.84,.19-.57,.89,.8,2.07,1.39,4.2,2,6.34Zm112.23,21.84c.9,1.44,1.86,2.84,3.01,4.09,2.64,2.9,6.17,3.44,9.6,1.41-1.51-1.34-2.65-2.88-3.69-4.48-1.49-2.3-2.97-4.61-4.42-6.94-.29-.46-.64-.81-1.11-1.07-2.29-1.31-4.55-.92-6.84,.03-.61,.25-.58,.49-.27,.99,1.26,1.97,2.47,3.98,3.72,5.96ZM63.02,24.39c-1.88-.35-3.6,.22-5.25,1.04-.32,.16-.36,.33-.14,.64,2.2,3.13,4.05,6.5,6.57,9.4,2.93,3.38,6.47,3.98,10.16,1.71-1.78-1.57-3.13-3.41-4.42-5.29-1.22-1.78-2.51-3.52-3.62-5.37-.78-1.3-1.93-1.87-3.29-2.13ZM22.13,51.8c-.95-1.52-1.97-2.99-3.27-4.24-2.59-2.5-6.37-2.89-9.05-.94,.5,.54,1.03,1.06,1.5,1.63,2.53,3.05,4.38,6.55,6.56,9.84,.28,.43,.61,.76,1.05,1.01,2.29,1.29,4.56,.94,6.85-.02,.58-.24,.62-.47,.28-1-1.33-2.07-2.61-4.19-3.92-6.28Zm82.52,10.33c.72,.25,1.4,.64,2.06,1.02,2.93,1.72,5.59,3.83,8.4,5.73,.65,.44,1.28,.72,1.69,.68,3-.04,4.84-1.51,6.49-3.36,.32-.35,0-.46-.22-.62-.81-.56-1.62-1.12-2.43-1.68-2.23-1.55-4.35-3.25-6.8-4.45-3.61-1.78-6.62-1.22-9.36,1.71-.41,.43-.59,.69,.17,.96Zm47.18-1.73c2.48,1.28,4.83,.69,7.15-.5,.44-.23,.24-.46,.05-.72-.94-1.37-1.88-2.74-2.82-4.12-1.46-2.14-2.86-4.32-4.81-6.07-2.67-2.38-6.18-2.58-9.04-.63,.51,.59,.98,1.16,1.47,1.7,2.61,2.89,4.64,6.22,6.92,9.35,.3,.41,.62,.75,1.07,.98ZM100.11,12.73c.52,2.81,.9,5.66,1.99,8.34,1.46,3.58,3.97,5.26,7.98,5.25-.44-1.16-.83-2.25-1.11-3.39-.84-3.47-1.35-7.01-2.03-10.51-.15-.75-.43-1.39-.91-1.98-1.62-1.97-3.81-2.57-6.23-2.73-.66-.04-.76,.14-.61,.69,.39,1.43,.65,2.88,.91,4.33Zm61.29,47.22c2.45,1.27,4.78,.71,7.08-.43,.47-.23,.25-.45,.07-.71-.52-.77-1.03-1.54-1.55-2.3-1.74-2.54-3.26-5.25-5.42-7.49-2.82-2.93-6.27-3.39-9.76-1.22,.48,.45,.92,.79,1.29,1.2,2.76,3.02,4.76,6.6,7.14,9.91,.32,.44,.67,.78,1.15,1.03ZM74.3,24.51c-2.47-1.21-4.79-.62-7.08,.55-.38,.2-.25,.4-.07,.65,.5,.7,.98,1.42,1.47,2.13,1.75,2.5,3.3,5.15,5.42,7.37,.19,.2,.38,.39,.58,.57,1.38,1.28,2.96,2.16,4.98,2.12,.25,0,.49-.04,.74-.07,.4-.05,.78-.12,1.16-.23,.05-.01,.1-.02,.14-.03,.66-.2,1.3-.47,1.92-.79,.44-.22,.47-.36,.09-.69-.8-.68-1.52-1.44-2.19-2.26-2.16-2.66-4.02-5.54-6.02-8.32-.32-.44-.68-.77-1.16-1.01Zm7.36,13.07c.66-.2,1.3-.47,1.92-.79-.63,.32-1.26,.59-1.92,.79Zm-.14,.03c-.38,.11-.77,.18-1.16,.23,.4-.05,.78-.12,1.16-.23Zm-52.34,8.81c.63,.77,1.24,1.46,1.79,2.2,2.21,3.01,3.95,6.31,5.94,9.47,.29,.46,.61,.82,1.08,1.1,2.37,1.4,4.72,1.02,7.08,0,.51-.22,.32-.47,.13-.78-.66-1.08-1.31-2.16-1.96-3.24-1.36-2.27-2.63-4.6-4.33-6.66-2.71-3.28-6.11-4.02-9.73-2.1ZM109.01,17.32c.54,2.81,.94,5.66,2.09,8.31,1.32,3.04,3.64,4.64,7.07,4.84,.77,.2,.7-.2,.46-.84-.29-.74-.53-1.51-.73-2.28-.94-3.64-1.41-7.38-2.18-11.06-.1-.47-.25-.88-.52-1.26-1.57-2.2-3.81-2.99-6.4-3.14-.67-.04-.79,.18-.66,.79,.32,1.54,.59,3.09,.88,4.63ZM23.9,33.88c.72,1.15,1.55,2.22,2.46,3.23,2.38,2.66,5.7,3.31,8.9,1.76,.52-.25,.46-.43,.11-.77-1.31-1.28-2.34-2.78-3.31-4.31-1.29-2.02-2.66-4.01-3.83-6.1-1.06-1.9-2.71-2.44-4.67-2.54-1.33-.01-2.55,.38-3.76,.88-.51,.21-.54,.44-.25,.89,1.47,2.31,2.9,4.65,4.36,6.97Zm108.12-11.13c-1.46-1.81-3.43-2.4-5.64-2.51-.69-.03-.74,.21-.61,.8,.38,1.84,.78,3.68,1.03,5.54,.39,2.88,1.33,5.49,3.29,7.7,2.39,2.68,5.84,3.52,8.97,2.12-.57-.84-1.19-1.64-1.71-2.51-1.95-3.23-3.38-6.71-4.8-10.19-.14-.35-.29-.67-.53-.96Zm-17.79,47c-2.82-1.84-5.42-3.99-8.35-5.65-1.43-.81-2.92-1.48-4.83-1.48-1.66-.06-3.17,.79-4.55,1.95q-1.44,1.21,.16,2.06c.08,.04,.16,.09,.24,.14,3.38,1.82,6.35,4.27,9.53,6.38,.39,.26,.77,.46,1.25,.53,2.21,.33,5.64-1.33,6.79-3.29,.22-.38,0-.5-.23-.65ZM33.08,33.21c1,1.56,2.07,3.07,3.43,4.34,1.33,1.24,2.85,2.05,4.89,1.99,1.11,.06,2.26-.36,3.42-.8,.58-.22,.51-.44,.12-.82-1-.97-1.85-2.07-2.61-3.24-1.67-2.55-3.33-5.12-4.96-7.69-.31-.49-.68-.86-1.18-1.13-2.38-1.29-4.7-.84-7.01,.23-.6,.28-.23,.57-.05,.86,1.31,2.09,2.62,4.18,3.95,6.26Zm.94,22.41c-1.6-2.6-3.04-5.3-5.08-7.61-2.52-2.86-6.01-3.47-9.45-1.57,.91,.92,1.7,1.87,2.41,2.88,1.87,2.68,3.52,5.51,5.21,8.31,.8,1.33,1.95,1.94,3.33,2.22,1.75,.35,3.43-.07,5.04-.79,.44-.19,.43-.4,.19-.77-.57-.88-1.1-1.79-1.65-2.68Zm16.85,4.69c1.2,0,2.31-.33,3.42-.73,.63-.23,.74-.45,.38-1.04-.96-1.55-1.86-3.12-2.78-4.7-1.09-1.86-2.18-3.73-3.59-5.38-2.45-2.89-5.5-3.66-8.88-2.26-.62,.25-.66,.43-.19,.92,.62,.64,1.17,1.36,1.68,2.09,1.89,2.71,3.51,5.59,5.15,8.45,1.12,1.96,2.78,2.54,4.81,2.66ZM159.74,25.25c-2.23-1.46-4.54-1.26-6.91-.41-.62,.22-.6,.46-.31,.96,1.22,2.14,2.39,4.31,3.6,6.46,.91,1.61,1.91,3.17,3.19,4.53,1.37,1.45,3.02,2.32,5.18,2.36,1.02-.04,2.12-.3,3.21-.69,.5-.18,.46-.36,.15-.7-1.05-1.14-1.93-2.41-2.71-3.74-1.51-2.58-3-5.17-4.48-7.77-.24-.42-.53-.74-.92-1Zm-113.66,.65c-2.5-1.48-4.96-1.06-7.41,.12-.55,.26-.17,.56-.02,.8,1.53,2.39,3.06,4.77,4.62,7.14,.78,1.18,1.67,2.29,2.7,3.28,2.57,2.46,5.9,2.82,9.02,.92-.63-.71-1.25-1.35-1.81-2.04-2.34-2.95-4.19-6.24-6.3-9.35-.23-.33-.44-.65-.8-.87ZM12.64,31.11c1.26,2.12,2.46,4.29,4.2,6.08,2.75,2.83,5.68,3.3,9.3,1.47-1.11-1.17-2.08-2.33-2.89-3.61-1.68-2.66-3.34-5.33-5-8.01-.2-.32-.37-.63-.7-.84-2.43-1.64-4.96-1.31-7.4-.21-.47,.21-.24,.46-.09,.73,.86,1.46,1.7,2.93,2.57,4.39Zm153.55-6.5c-1.61,0-2.76,.31-3.9,.72-.59,.21-.57,.45-.29,.93,1.37,2.34,2.7,4.7,4.08,7.03,.83,1.41,1.75,2.76,2.92,3.92,2.35,2.35,5.29,2.88,8.33,1.54,.53-.23,.45-.4,.12-.75-1.21-1.29-2.17-2.76-3.07-4.27-1.27-2.15-2.62-4.25-3.78-6.46-1.05-2.01-2.78-2.54-4.41-2.67ZM87.66,62.12c1.45,.4,2.87,.16,4.29-.2,.59-.15,.63-.4,.41-.91-1.12-2.6-2.22-5.21-3.54-7.72-.65-1.23-1.37-2.41-2.26-3.49-2.42-2.92-5.76-3.69-9.22-2.07,1.41,1.57,2.48,3.3,3.44,5.09,1.16,2.17,2.36,4.33,3.4,6.56,.73,1.56,1.95,2.32,3.49,2.74Zm62.54-37.45c-2.25-1.5-4.6-1.32-7-.44-.52,.19-.33,.47-.17,.78,.74,1.42,1.48,2.84,2.23,4.26,1.3,2.45,2.52,4.95,4.44,7.01,1.39,1.48,3.03,2.41,5.21,2.33,.99,.06,2-.19,3.01-.51,.54-.17,.75-.31,.24-.82-.83-.83-1.5-1.8-2.09-2.82-1.65-2.89-3.28-5.79-4.9-8.7-.25-.45-.55-.8-.97-1.08Zm-9.49-.84c-2.08-1.46-4.31-1.43-6.63-.72-.52,.16-.4,.42-.25,.75,.67,1.52,1.31,3.06,1.99,4.57,1.11,2.44,2.24,4.87,4.01,6.93,1.43,1.67,3.19,2.69,5.45,2.69,1.06,0,2.07-.23,3.08-.55,.51-.16,.47-.33,.17-.68-.87-1.01-1.64-2.09-2.27-3.26-1.52-2.82-3.01-5.65-4.49-8.49-.26-.51-.59-.92-1.06-1.25Zm71.22,27.41c-.88-1.45-1.9-2.81-3.15-3.97-2.37-2.22-5.92-2.56-8.62-.82,.59,.71,1.22,1.39,1.77,2.12,2.25,3.02,4.03,6.34,6.06,9.5,.26,.4,.55,.72,.96,.97,2.24,1.37,4.51,1.1,6.82,.19,.6-.24,.64-.49,.33-1-1.4-2.32-2.75-4.67-4.16-6.99Zm-60.27,23.78c-.74-1.25-1.49-2.49-2.46-3.58-1.88-2.1-4.44-2.76-7.18-1.81,1.13,1.93,1.92,4,2.74,6.06,.87,2.21,1.86,4.36,2.9,6.5,.47,.96,1.17,1.57,2.09,1.97,2.35,1.04,4.63,.68,6.87-.39,.61-.29,.75-.53,.26-1.11-1.98-2.38-3.66-4.97-5.23-7.62ZM74.45,9.76c.67,1.14,1.38,2.26,2.19,3.31,1.79,2.35,4.15,3.04,6.97,2.49,.45-.09,.64-.2,.35-.71-.48-.86-.9-1.75-1.29-2.66-1.35-3.14-2.53-6.35-4.09-9.4-.49-.95-1.18-1.56-2.09-1.98-.9-.42-1.86-.65-2.77-.62-1.55-.02-2.88,.42-4.17,1.04-.63,.3-.66,.54-.23,1.06,1.93,2.33,3.59,4.86,5.13,7.46Zm94.84,61.96c-1.29-.84-2.57-1.71-3.98-2.34-.84-.38-1.73-.81-2.66-.55-1.36,.39-2.66,.97-3.79,1.91,.69,.69,1.38,1.35,2.03,2.04,2.36,2.52,4.6,5.15,7.38,7.26,.9,.68,1.82,.84,2.85,.71,2.9-.38,4.82-2.17,6.39-4.46,.27-.39,.19-.54-.28-.68-2.88-.82-5.45-2.27-7.94-3.89Zm-25.76,4c-.77-1.95-1.53-3.9-2.65-5.68-1.7-2.71-4.18-3.67-7.33-3.25,.28,.77,.58,1.51,.83,2.26,1.24,3.77,2.11,7.66,3.52,11.37,.17,.44,.38,.83,.72,1.15,2.25,2.14,4.91,2.35,7.76,1.64,.62-.16,.27-.48,.13-.74-1.13-2.19-2.08-4.46-2.98-6.76ZM59.02,4.24c2.09,1.55,3.85,3.45,5.6,5.37,1.24,1.37,2.45,2.77,3.93,3.9,2.13,1.62,4.37,1.6,6.71,.54,.3-.13,.44-.23,.19-.59-2.45-3.59-4.53-7.41-7.29-10.79-.99-1.21-2.21-1.55-3.53-1.74-2.2,.13-3.96,1.09-5.63,2.3-.53,.39-.49,.63,.02,1.01Zm23.48,4.53c.82,2.06,1.61,4.14,2.77,6.04,1.69,2.77,4.18,3.78,7.38,3.37-.39-1.11-.78-2.12-1.09-3.14-1.08-3.5-1.97-7.07-3.24-10.51-.18-.48-.42-.88-.79-1.22-2.23-2.03-4.82-2.28-7.61-1.59-.61,.15-.39,.46-.21,.81,1.07,2.02,1.94,4.13,2.78,6.25Zm-16.02,50.95c2.33,1.54,4.73,1.25,7.16,.31,.54-.21,.25-.51,.1-.79-1.28-2.28-2.54-4.58-3.84-6.85-1.01-1.77-2.12-3.47-3.69-4.82-2.14-1.83-5.73-2.18-8.17-.77,.91,1.01,1.77,2.06,2.46,3.22,1.71,2.89,3.4,5.79,5.07,8.7,.24,.42,.52,.74,.91,1ZM49.02,9.35c1.56,.48,3.07,1.09,4.52,1.86,2.13,1.13,4.07,2.57,6.17,3.74,1.05,.59,2.14,1.09,3.58,.98,1.14,.1,2.21-.51,3.28-1.13,.64-.37,1-.68,.15-1.25-.43-.29-.77-.71-1.13-1.09-2.46-2.64-4.79-5.4-7.7-7.59-.81-.61-1.64-.76-2.59-.67-3,.3-4.96,2.12-6.58,4.46-.28,.41-.16,.55,.29,.69Zm80.96-2.44c1.54,1.13,3.03,2.34,4.48,3.59,1.75,1.51,3.43,3.12,5.46,4.27,2.61,1.48,4.7,1.36,7.53-.51,.4-.26,.38-.45,.03-.76-.67-.59-1.32-1.21-1.93-1.86-2.26-2.4-4.44-4.89-6.84-7.16-.88-.83-1.85-1.16-3.01-1.15-2.41,.03-4.27,1.21-5.93,2.83-.44,.43-.04,.56,.22,.75Zm-33.75,71.1c-2.13-1.48-4.06-3.21-6.01-4.91-1.09-.95-2.22-1.86-3.44-2.65-2.54-1.65-5.06-1.7-7.61-.01-.88,.58-.88,.55-.09,1.3,.61,.57,1.2,1.15,1.77,1.76,2.2,2.33,4.31,4.74,6.64,6.95,.91,.86,1.9,1.19,3.08,1.17,2.3-.04,4.09-1.15,5.73-2.65,.44-.4,.41-.63-.07-.96ZM177.44,24.26c-.78,3.1-.17,5.78,2.24,8.1,.26-.5,.47-.94,.71-1.37,1.96-3.59,4.17-7.06,5.47-10.98,.2-.61,.3-1.2,.2-1.81-.56-3.41-2.54-5.72-5.56-7.25-.68-.34-.75-.05-.73,.55,.05,1.86-.17,3.69-.51,5.51-.45,2.46-1.22,4.83-1.82,7.25ZM77.45,61.01c1.9,.7,3.75,.37,5.59-.29,.55-.2,.3-.48,.15-.77-1.19-2.26-2.37-4.53-3.59-6.77-.81-1.49-1.74-2.9-2.83-4.21-2.31-2.78-5.91-3.1-9.12-1.81,1.58,1.72,2.75,3.64,3.85,5.6,1.13,2.01,2.3,4.01,3.34,6.07,.58,1.15,1.49,1.76,2.61,2.18Zm-5.89,14.65c-.86-1.53-1.81-3.02-3.06-4.28-1.22-1.23-2.65-2.01-4.45-1.88-.52,.02-1.04,.04-1.56,.13-.46,.09-.54,.21-.35,.65,1.76,4.14,3.07,8.46,5.3,12.4,.29,.51,.62,.91,1.1,1.21,2.68,1.67,5.34,1.3,8.01-.03,.56-.28,.22-.51,.02-.75-1.93-2.3-3.53-4.83-5-7.44ZM154.54,9.08c.94,1.67,1.96,3.28,3.33,4.65,1.63,1.63,3.6,2.03,5.8,1.62,.3-.06,.7-.03,.45-.61-1.72-4.05-3.02-8.27-5.15-12.16-.44-.8-.98-1.39-1.77-1.8-1-.52-2.05-.84-3.19-.77-1.47-.08-2.8,.37-4.1,.97-.48,.22-.69,.4-.24,.92,1.91,2.2,3.44,4.65,4.87,7.18Zm25.95,24.47c-1.12,2.68-.65,5.17,.85,7.66,.61-.69,1.15-1.32,1.72-1.93,2.53-2.7,5.08-5.38,7.06-8.53,.18-.29,.37-.55,.43-.9,.6-3.61-.78-6.5-3.21-9.02-.44-.46-.54-.05-.65,.26-.61,1.75-1.38,3.42-2.23,5.06-1.29,2.48-2.87,4.81-3.96,7.4Zm12.43,14.44c0-1.23-.18-2.23-.36-3.23-.11-.61-.28-.78-.85-.32-1.83,1.47-3.87,2.62-5.97,3.67-1.48,.75-2.98,1.47-4.41,2.33-2.08,1.25-3.34,3.02-3.73,5.44-.32,2.03-.37,2.02,1.57,1.6,.03,0,.06,0,.09-.01,3.21-.71,6.44-1.32,9.56-2.44,1.98-.71,2.96-2.07,3.57-3.89,.37-1.09,.51-2.22,.52-3.15Zm-88.37,25.36c-3.01-2.03-5.83-4.35-9.13-5.94-3.24-1.56-5.94-1.06-8.48,1.68,1.12,.68,2.1,1.43,3.04,2.22,2.27,1.89,4.49,3.84,6.83,5.67,1.33,1.04,2.67,1.11,4.15,.77,1.49-.33,2.7-1.17,3.77-2.22,1.23-1.21,1.24-1.22-.18-2.18ZM41.43,18.2c2.62-.34,5.22-.11,7.82,.35,1.76,.32,3.47,.85,5.27,.9,2.19,.07,3.59-1.21,4.82-2.8,.3-.39-.01-.46-.24-.6-1.02-.64-2.04-1.26-3.06-1.91-2.27-1.44-4.63-2.66-7.18-3.56-1.71-.6-3.07-.12-4.38,.86-2.02,1.51-3.06,3.64-3.72,6.01-.2,.72,0,.84,.66,.75Zm80.46-6.44c2.98,2.03,5.8,4.3,9.07,5.87,3.22,1.54,5.48,.78,7.98-1.34,.42-.36,.21-.51-.13-.73-1.34-.84-2.54-1.86-3.72-2.89-1.97-1.73-3.98-3.41-6.09-4.97-.67-.5-1.34-.71-2.1-.69-2.06,0-3.72,.87-5.18,2.2-1.52,1.39-1.52,1.4,.17,2.55Zm45.4,69.05c-2.13-1.6-3.96-3.52-5.73-5.5-1.19-1.33-2.36-2.69-3.8-3.78-1.74-1.33-3.64-1.72-5.74-1-1.52,.52-1.49,.49-.65,1.82,1.98,3.12,3.88,6.29,6.13,9.25,1.14,1.49,2.45,2.15,4.15,2.04,2.22,.12,4.01-.68,5.64-1.96,.43-.34,.47-.51,0-.86Zm29.98-43.64c2.35,2.64,5.14,3.34,8.44,2.1q1.09-.41,.33-1.23c-.23-.25-.45-.51-.66-.77-2.37-2.94-4.18-6.26-6.12-9.48-1.12-1.86-2.74-2.42-4.68-2.57-.85-.02-1.66,.18-2.47,.41-.2,.06-.51,.1-.49,.35,.09,1.07-.08,2.29,.39,3.16,1.53,2.81,3.11,5.62,5.26,8.04Zm-12.63,29.61c-2.19,.28-4.36,.12-6.54-.18-2.14-.29-4.2-1.04-6.6-1.06-2.02-.18-3.36,1.22-4.62,2.75-.28,.34-.02,.48,.23,.63,.84,.51,1.69,1.02,2.52,1.55,2.36,1.53,4.81,2.84,7.46,3.83,1.95,.72,3.48,.19,4.93-1.02,1.77-1.48,2.78-3.42,3.36-5.62,.26-.98,.25-1.01-.74-.89Zm-3.73-23.29c-1.19,1.83-.88,3.9-.53,6.07,2.2-1.37,4.47-2.34,6.62-3.53,1.6-.88,3.11-1.87,4.53-3.01,.31-.25,.66-.47,.81-.87,1.42-3.72,.81-7.17-1.35-10.45-.11,.09-.2,.13-.25,.2-2.01,3.14-4.58,5.79-7.11,8.49-.94,1-1.98,1.95-2.72,3.09Zm-54.42,21.87c1.89-.17,3.36-1.05,4.55-2.51,.36-.44,.35-.63,0-1.05-2.39-2.92-5.43-4.99-8.75-6.68-1.08-.55-2.24-.87-2.96-.86-2.55,0-4.16,.98-5.58,2.33-1.03,.97-1.02,.98,.2,1.56,.14,.07,.28,.14,.41,.21,3.45,1.77,6.4,4.27,9.6,6.41,.81,.54,1.61,.69,2.52,.6Zm-39.86,15.92c-1.33-1.24-2.6-2.54-3.84-3.88-1.77-1.92-3.42-3.98-5.52-5.57-1.07-.82-2.24-1.41-3.66-1.41-1.01,.03-1.98,.32-2.95,.63-.48,.15-.56,.34-.23,.76,.92,1.16,1.69,2.43,2.4,3.72,1.44,2.63,3.15,5.07,5.08,7.37,.25,.29,.5,.53,.85,.68,2.94,1.28,5.84,.1,8-1.6,.43-.33,.09-.49-.13-.7ZM139.62,3.72c2.17,2.02,4.16,4.21,6.14,6.41,.91,1.01,1.89,1.94,2.93,2.82,2.12,1.79,4.43,1.94,6.93,.95,.41-.17,.52-.3,.2-.7-1.19-1.5-2.11-3.18-3.06-4.84-1.15-2.01-2.56-3.84-3.94-5.69-1.03-1.38-2.37-1.75-3.86-1.79-2.12-.02-3.81,.86-5.42,2.03-.52,.38-.19,.57,.08,.82ZM62.46,74.23c-.53-1.41-1.09-2.81-1.72-4.18-.85-1.85-2.14-3.21-4.25-3.64-1.4-.28-1.39-.31-1.27,1.08,.02,.21,.02,.43,.03,.65,.25,3.84,.57,7.67,1.65,11.41,.41,1.42,1.2,2.39,2.38,3.13,1.23,.77,2.59,1.12,4.26,1.13,.59,.02,1.37-.16,2.16-.3,.66-.11,.72-.32,.4-.89-1.48-2.67-2.56-5.52-3.63-8.38ZM170.89,6.97c.9,3.58,1.01,7.26,1.29,10.91,.22,2.87,1.12,5.3,4.05,6.52,.88-3.65,2.18-7.22,2.36-11.01,.08-1.79,.45-3.61-.76-5.26-1.75-2.39-4.1-3.55-7.01-3.72-.49-.03-.6,.17-.47,.6,.19,.65,.37,1.3,.54,1.96Zm-8.41,.42c.99,2.46,1.81,4.98,2.91,7.39,1.01,2.21,2.59,3.63,5.08,3.92,.51,.06,.66-.04,.6-.55-.09-.86-.14-1.72-.19-2.58-.23-3.73-.68-7.42-1.84-11-.12-.37-.3-.67-.54-.95-1.52-1.69-3.45-2.42-5.64-2.47-.83,.04-1.62,.17-2.41,.34-.58,.12-.61,.33-.35,.8,.9,1.65,1.68,3.36,2.38,5.1Zm27.09,48.62c-2.3,1.01-4.72,1.6-7.17,2.1-1.54,.31-3.07,.66-4.59,1.05-2.42,.62-3.95,2.15-4.6,4.58-.1,.39-.19,.62,.32,.72,2.85,.53,5.66,1.27,8.59,1.15,.65,0,1.31,.07,1.94-.02,1.07-.15,2.19-.05,3.11-.91,2.4-2.25,3.07-5.1,3.12-8.22,0-.54-.18-.69-.73-.45Zm-13.26-.11c-1.81-2.79-3.41-5.73-5.91-8-.16-.15-.33-.29-.5-.42-.34-.26-.69-.49-1.06-.69-.18-.1-.37-.19-.56-.27-.76-.32-1.59-.5-2.47-.52-1.01,.04-1.97,.27-2.9,.61-.31,.11-.62,.24-.92,.38-.4,.18-.42,.35-.11,.66,.57,.57,1.13,1.14,1.63,1.76,2.23,2.76,4.05,5.82,6,8.77,.78,1.17,1.81,1.7,3.04,2.04,.58,.16,1.1,.13,1.56-.43,.34-.41,.85-.7,1.32-1,.46-.29,1.02-.41,.93-1.18-.07-.57,.29-1.21-.04-1.72Zm-8.03-9.38c-.76-.32-1.59-.5-2.48-.52-1.01,.04-1.97,.27-2.9,.61,.93-.34,1.89-.57,2.9-.61,.89,.02,1.71,.2,2.47,.52Zm.56,.27c.37,.2,.72,.43,1.06,.69-.34-.26-.69-.49-1.06-.69Zm33.68,4.71c-.99-1.56-2.07-3.07-3.47-4.3-1.32-1.16-2.81-1.87-4.62-1.79-.41,.02-.64,.07-.55,.56,.25,1.38,.18,2.76-.05,4.14-.06,.39,.01,.71,.23,1.04,1.33,2.07,2.73,4.11,3.93,6.26,1.07,1.9,2.72,2.43,4.68,2.54,1.33,.01,2.55-.41,3.75-.9,.54-.22,.52-.43,.24-.87-1.4-2.22-2.74-4.46-4.15-6.67Zm-107.67,11.4c.54,.57,1.01,.76,1.66,.12,.39-.38,.95-.57,1.39-.89,.61-.44,1.72-.19,1.92-.96,.18-.68-.21-1.5-.33-2.26-.42-2.9-1.14-5.66-3.12-7.96-1.61-1.87-3.54-3.03-6.33-3.07-.39,.06-1.07,.13-1.73,.27-1.29,.28-1.27,.28-.51,1.33,2.55,3.53,4.1,7.56,5.75,11.54,.31,.75,.76,1.31,1.29,1.87Zm38.59,7.06c-.51-1.59-1.1-3.14-2.11-4.49-.29-.39-.51-.59-1.02-.22-1.06,.77-2.25,1.27-3.58,1.34-.39,.02-.56,.14-.46,.57,.76,3.36,1.19,6.79,2.06,10.13,.08,.3,.23,.56,.42,.81,1.58,2.04,3.71,2.85,6.41,2.9,.23-.02,.66-.08,1.09-.1,.48-.02,.54-.19,.37-.63-1.29-3.37-2.08-6.89-3.18-10.32ZM38.18,24.9c2.81-1.42,5.68-1.81,8.52-.05,.34,.21,.57,.08,.84-.07,1.03-.57,2.13-1.07,3.29-1.15,1.1-.07,1.6-.58,1.87-1.53,.09-.32,.22-.64,.34-.96,.12-.31,.18-.52-.3-.62-2.84-.54-5.65-1.27-8.57-1.18-.62,0-1.23-.02-1.85,0-1.54,.05-2.98,.31-4.01,1.67-.62,.82-1.19,1.65-1.55,2.61-.12,.33-.51,.72-.06,1.08,.44,.35,.84,.5,1.48,.18Zm9.59,37.27c.32-.81,.27-1.16-.56-1.61-.74-.4-1.31-.48-2.01-.08-.34,.19-.74,.4-1.12,.41-2.23,.02-2.96,1.53-3.44,3.33-.09,.33-.22,.64-.35,.95-.2,.5-.22,1-.14,1.54,.48,3.2,2.28,5.45,5.02,7.03,.23,.13,.46,.32,.83,.22-.06-.54-.14-1.08-.19-1.63-.28-3.56,.66-6.9,1.96-10.16ZM109.87,27.49c-3.13,.05-5.8-1.04-7.61-3.75-.17-.25-.35-.4-.67-.39-2.04,.04-3.99-.3-5.76-1.4-.49-.3-.62,.22-.89,.41-.3,.21-.11,.41,.05,.61,2.76,3.31,6.12,5.82,10.14,7.35,2.62,1,4.95,.21,6.94-1.6-.45-.98-1.13-1.24-2.21-1.23Zm-8.9,33.01c.06,.31-.13,.87,.45,.85,.54-.02,1.13,.33,1.61-.3,1.01-1.31,2.25-2.36,3.74-3.1,.35-.17,.42-.37,.31-.73-1.31-4.47-3.76-7.21-9.66-7.11,.03,.41,.3,.6,.46,.84,1.1,1.62,2.01,3.3,2.28,5.28,.2,1.43,.5,2.85,.8,4.26Zm24.17,6.75c-.06-.26,0-.61-.36-.68-.34-.07-.45,.27-.62,.47-1.32,1.5-2.79,2.79-4.73,3.43-.24,.08-.51,.16-.43,.49,.29,1.15,.22,2.38,1.03,3.39,1.66,2.09,3.91,2.78,6.55,2.92,.19-.04,.67,.2,.48-.52-.83-3.13-1.17-6.35-1.92-9.5ZM37.9,40.04c-.21-.1-.37-.14-.59,0-1.09,.7-2.14,1.45-3.12,2.3-.46,.4-.66,1.05-.58,1.59,.07,.44,.74,.21,1.11,.37,.22,.1,.52,.07,.7,.2,1.62,1.19,3.24,.92,4.91,.1,.58-.28,3.62-1.83,4.15-2.3,.07-.06,.15-.11,.22-.16,.86-.59,1.04-1.51,1.29-2.43-.13-.02-.16-.03-.19-.03-.14,.05-.29,.09-.43,.16-2.47,1.09-4.95,1.44-7.48,.2ZM114.83,12.87c.4,.32,.8,.71,1.04,1.16,.4,.75,.98,.84,1.74,.85,3.05,.02,5.58,1.12,7.37,3.68,.16,.22,.27,.49,.62,.48,1.52-.05,3.01,.13,4.45,.66,.44,.16,.62-.22,.77-.49,.17-.29-.17-.34-.33-.42-3.84-1.83-7.08-4.57-10.59-6.91-.66-.44-1.31-.63-2.09-.67-1,.05-1.97,.29-2.9,.74-.6,.29-.6,.52-.09,.93Zm63.06,39.13c1.46-1.21,1.52-2.68,1.12-4.32,0-.03,0-.06,0-.09,.07-.7-.34-1.03-.93-1.3-2.13-.96-4.19-.6-6.25,.25-.69,.28-.56,.51-.13,.91,.7,.65,1.31,1.39,1.86,2.17,1.06,1.51,2.09,3.03,3.2,4.64,.34-.83,.5-1.74,1.13-2.26Zm-2.04-26.3c-.64-.38-1.22-.97-2.09-.65-.66,.24-1.34,.45-2.01,.66-.46,.14-.56,.33-.28,.79,1.59,2.63,3.14,5.29,4.74,7.92,.67,1.09,1.43,2.12,2.5,3.12-.01-1.2,.04-2.24,.35-3.23,.15-.47,.04-.76-.3-1.12-1.79-1.94-2.98-4.15-2.73-6.9,.02-.22,.05-.45-.17-.58Zm17.46,26.43c-.52,1.11-1.03,2.02-1.74,2.8-.18,.2-.24,.44-.2,.69,.17,1.15,.06,2.29-.13,3.41-.11,.66,.16,.79,.69,.87,1.81,.3,3.48-.17,5.1-.91,.38-.18,.41-.35,.19-.7-1.28-1.99-2.54-4-3.91-6.16Zm-85.52,3.63q.52,1.46,2.05,1.39c.18,0,.38-.03,.55,.03,.9,.31,1.4-.16,1.9-.81,.28-.37,.19-.5-.13-.69-1.47-.86-3.04-1.26-4.82-1.16,.16,.45,.31,.85,.45,1.25Zm-67.79,5.49c-1.09-.16-2.06-.6-2.96-1.2-.24-.16-.43-.19-.67-.02-.28,.2-.06,.4,.02,.56,.68,1.47,1.59,2.76,2.89,3.89,.39-.97,.75-1.88,1.1-2.78,.15-.38-.15-.41-.38-.45Zm154.52-21.65c.53,.19,1.32-.32,1.99-.53,.03,0,.05-.03,.08-.04,.49-.14,.46-.34,.13-.69-.9-.93-1.65-1.98-2.39-3.04-.13-.19-.21-.47-.58-.41,.28,.93,.4,1.88,.49,2.85,.06,.64-.44,1.59,.26,1.85Zm-76.55,32.13c-.16-.29,.09-.93-.43-.87-.69,.09-1.47-.55-2.06,.19-.36,.45-1.19,.9-1.04,1.29,.22,.55,1.09,.47,1.71,.58,.36,.06,.73,.1,1.09,.15,.87,.16,1.11-.18,.82-.99-.04-.11-.03-.25-.09-.36Z"/>
      <g>
        <path class="cls-1" d="M396.91,73.74c-2.72-1.67-3.76-2.66-6.37-6.93l-12.88-24.54c4.99-2.01,8.64-4.45,10.86-7.27,2.53-3.22,3.81-6.91,3.81-10.97,0-5.93-1.98-10.55-5.58-12.99-2.91-1.98-6.13-3.39-9.57-4.18-2.59-.6-8.59-.87-13.09-.87h0l-8.96,.32h-7.67l-11.62-.22v3.14h2.97c4.33,0,6.43,3.27,6.43,10v46.79c0,3.53-.51,6.12-1.52,7.69-1,1.55-2.61,2.31-4.91,2.31h-2.97v2.92h14.21l14.54,.22v-3.14h-2.97c-4.33,0-6.43-3.27-6.43-10v-21.9l2.11,.18c.32,.04,1.09,.1,1.87,.15l2.92,.08c1.37,.03,2.78-.08,2.84-.08l2.97-.48h0l17.95,34.92h-1.08v.27h20.75v-3.13h-1.35c-3.03,0-4.84-.78-7.26-2.27Zm-33.93-33.08c-.88,0-3.14-.02-4.42-.17l-.74-.08c-.92-.1-1.8-.2-2.64-.39V10.4l7.45-.16c7.02,.23,11.28,1.49,14.71,4.34,3.34,2.78,5.04,6.4,5.04,10.76s-1.63,8.08-4.83,11.04c-3.18,2.94-9.78,4.28-14.57,4.28Z"/>
        <path class="cls-1" d="M313.44,42.89c-2.56-1.19-4.64-2.02-6.2-2.49-1.39-.42-3.15-.83-5.25-1.22,5.32-2.81,9.07-5.4,11.16-7.69,2.2-2.42,3.31-5.39,3.31-8.83,0-2.78-.89-5.47-2.64-7.99-1.75-2.52-4.44-4.62-8-6.25-3.7-1.7-11.32-2.46-22.27-2.46h-5.31l-7.12,.32-6.26-.07c-.14,0-.27,0-.41-.01l-5.05-.16v2.81l3.91,.17c5.02,.69,5.5,3.32,5.5,10.09v46.87c0,3.54-.51,6.13-1.52,7.7-1,1.55-2.61,2.31-4.91,2.31h-2.97v3.13h.27c.51,0,2.19-.05,4.98-.16,2.79-.11,6.02-.16,9.6-.16l8.63,.16,2.4,.16h12.64c7.45,0,13.63-1.85,18.37-5.5,4.77-3.66,7.18-8.43,7.18-14.17,0-3.63-1.03-7.03-3.07-10.12-2.04-3.08-4.38-5.25-6.97-6.46Zm-34.5-32.55c.18-.15,1.21-.4,3.97-.37,15.11,.1,22.21,3.6,22.54,12.49,.16,4.33-1.15,8.11-3.88,11.21-2.57,2.93-12.28,4.39-16.39,4.39h-6.43V12.68c0-1.16-.01-2.17,.19-2.34Zm28.96,60.86c-3.16,3.17-9.4,4.58-14.18,4.58-1.76,0-7.79-.29-9.37-.85-1.57-.56-2.92-1.43-4-2.59-1.06-1.13-1.6-3.64-1.6-7.46v-22.82h7.51c6.18,0,17.99,1.63,21.21,4.59,3.31,3.04,4.99,7.2,4.99,12.38s-1.54,9.13-4.57,12.17Z"/>
        <path class="cls-1" d="M594.75,16.09c-7.94-6.78-18.51-10.22-31.42-10.22l-10.91,.43h-7.67l-12.38-.22v3.14h2.76c4.33,0,6.43,3.27,6.43,10v46.79c0,3.53-.51,6.12-1.52,7.69-1,1.55-2.61,2.31-4.91,2.31h-2.97v2.92h22.2l11.57,.43c11.97,0,21.87-3.39,29.41-10.06,7.55-6.69,11.38-15.5,11.38-26.19s-4.03-20.21-11.98-27.01Zm-7.24,50.78c-5.29,5.71-12.19,8.6-20.5,8.6-5.86,0-11.1-.97-12.74-2.36-1.84-1.56-2.77-4.55-2.77-8.91V13.91c0-2.29,.43-3.04,.79-3.28,.46-.3,3.79-.55,7.26-.55,4.99,0,10.33,.76,15.87,2.26,5.49,1.49,10.26,5.19,14.17,11,3.91,5.83,5.9,13,5.9,21.32,0,9.02-2.68,16.49-7.98,22.2Z"/>
        <path class="cls-1" d="M667.8,47.46v3.14h1.89c2.91,0,4.78,.62,5.55,1.84,.8,1.26,1.2,4.26,1.2,8.9v10.74c-4.66,2.53-9.8,3.81-15.29,3.81-8.16,0-15.22-3.41-20.98-10.13-5.76-6.74-8.69-15-8.69-24.56s2.76-17.77,8.19-23.57c5.43-5.8,12.84-8.74,22.01-8.74,6.47,0,11.87,1.45,16.06,4.3,4.17,2.85,6.79,6.85,7.78,11.9l.04,.22h2.47l-1.56-14.7-.16-.06c-5.25-1.95-9.94-3.38-13.92-4.25-4-.87-7.86-1.31-11.46-1.31-11.76,0-21.64,3.63-29.36,10.79-7.73,7.16-11.65,16.26-11.65,27.04s3.74,19.22,11.11,26.39c7.37,7.16,16.48,10.79,27.1,10.79,4.39,0,8.82-.44,13.18-1.3,4.35-.86,9.94-2.39,16.62-4.55l.16-.05,.27-1.99-.89-.42c-.78-.28-.87-.44-.87-.45-.03-.06-.09-.32-.09-1.35v-9.44c0-3.92,.46-6.58,1.36-7.9,.88-1.29,2.66-1.95,5.29-1.95h.27v-2.81h-12.91l-12.71-.33Z"/>
        <path class="cls-1" d="M742.28,10.4c3.09,0,12.49,0,14.54,1.95,2.4,2.28,3.5,6.32,4,9.31l.54-.04V5.87h-.27c-1.14,0-3.59,.06-5.96,.11-2.36,.05-4.58,.1-5.6,.1h-48.69v3.13h2.97c4.33,0,6.43,3.27,6.43,10v46.79c0,3.53-.51,6.12-1.52,7.69-1,1.55-2.61,2.31-4.91,2.31h-2.97v3.13h60.52v-16.89l-.52,1.41c-.19,.5-.36,.98-.53,1.44-1.47,4.02-2.45,6.67-4.59,7.87-2.43,1.37-7.02,2.06-13.65,2.06-7.19,0-16.97-.73-18.92-2.07-1.96-1.35-2.96-4.45-2.96-9.19v-19.97h23.26c2.08,0,4.07,.89,5.46,2.45l3.15,3.55v-16.35l-3.18,3.58c-1.38,1.56-3.37,2.45-5.46,2.45h-23.24V10.4h22.1Z"/>
        <path class="cls-1" d="M510.62,5.98c-2.36,.05-4.58,.1-5.6,.1h-48.69v3.13h2.97c4.33,0,6.43,3.27,6.43,10v46.79c0,3.53-.51,6.12-1.52,7.69-1,1.55-2.61,2.31-4.91,2.31h-2.97v3.13h60.52v-16.89l-.52,1.41c-.19,.5-.36,.98-.53,1.44-1.47,4.02-2.45,6.67-4.59,7.87-2.43,1.37-7.02,2.06-13.65,2.06-7.19,0-16.97-.73-18.92-2.07-1.97-1.35-2.96-4.45-2.96-9.19v-19.97h23.26c2.08,0,4.07,.89,5.46,2.45l3.15,3.55v-16.35l-3.18,3.58c-1.38,1.56-3.37,2.45-5.46,2.45h-23.24V10.4h22.1c3.09,0,12.49,0,14.54,1.95,2.4,2.28,3.5,6.32,4,9.31l.54-.04V5.87h-.27c-1.14,0-3.59,.06-5.96,.11Z"/>
        <path class="cls-1" d="M412.58,6.08v3.14h2.97c4.33,0,6.43,3.27,6.43,10v46.79c0,3.53-.51,6.12-1.52,7.69-1,1.55-2.61,2.31-4.91,2.31h-2.97v3.13h28.75v-3.13h-2.97c-4.33,0-6.43-3.27-6.43-10V19.21c0-3.53,.51-6.12,1.52-7.69,.99-1.53,2.64-2.31,4.91-2.31h2.97v-2.92h-14.75l-14-.22Z"/>
      </g>
    </g>
  </g>
</svg>